<svg width="19" height="19" viewBox="0 0 19 19" fill="none" xmlns="http://www.w3.org/2000/svg">
<g clip-path="url(#clip0_98_5347)">
<path d="M18.1606 15.0272H0.628877C0.455987 15.0272 0.315796 14.887 0.315796 14.7142V3.44376C0.315796 3.27087 0.455987 3.13068 0.628877 3.13068H18.1606C18.3335 3.13068 18.4737 3.27087 18.4737 3.44376V14.7142C18.4737 14.8871 18.3335 15.0272 18.1606 15.0272Z" fill="#F5F5F5"/>
<path d="M18.4737 4.04584H0.315796V3.44376C0.315796 3.27087 0.455987 3.13068 0.628877 3.13068H18.1606C18.3335 3.13068 18.4737 3.27087 18.4737 3.44376L18.4737 4.04584Z" fill="#FF4B55"/>
<path d="M18.4737 6.79111H0.315796V7.70624H18.4737V6.79111Z" fill="#FF4B55"/>
<path d="M18.4737 4.96078H0.315796V5.87591H18.4737V4.96078Z" fill="#FF4B55"/>
<path d="M18.4737 9.5365H0.628877C0.455987 9.5365 0.315796 9.39631 0.315796 9.22342V8.62134H18.4737V9.5365Z" fill="#FF4B55"/>
<path d="M18.4737 12.2821H0.315796V13.1972H18.4737V12.2821Z" fill="#FF4B55"/>
<path d="M18.1606 15.0272H0.628877C0.455987 15.0272 0.315796 14.887 0.315796 14.7141V14.1121H18.4737V14.7141C18.4737 14.887 18.3335 15.0272 18.1606 15.0272Z" fill="#FF4B55"/>
<path d="M18.4737 10.4518H0.315796V11.3669H18.4737V10.4518Z" fill="#FF4B55"/>
<path d="M8.45552 3.13071H0.628877C0.455987 3.13071 0.315796 3.27086 0.315796 3.44375V9.22341C0.315796 9.3963 0.455987 9.5365 0.628877 9.5365H8.45555C8.62844 9.5365 8.76863 9.3963 8.76863 9.22341V3.44375C8.7686 3.27086 8.62841 3.13071 8.45552 3.13071Z" fill="#41479B"/>
<path d="M1.1952 3.84925L1.2645 4.05708L1.48356 4.05874C1.51193 4.05899 1.52367 4.09517 1.50087 4.11201L1.32465 4.24217L1.39075 4.45102C1.39933 4.47804 1.36852 4.50045 1.34543 4.48393L1.16722 4.35658L0.98901 4.48396C0.965922 4.50045 0.935174 4.47808 0.943686 4.45105L1.00979 4.2422L0.833568 4.11205C0.810765 4.09517 0.822503 4.05903 0.850875 4.05878L1.06994 4.05711L1.13924 3.84929C1.14817 3.82234 1.18619 3.82234 1.1952 3.84925Z" fill="#F5F5F5"/>
<path d="M1.19508 4.93639L1.26438 5.14421L1.48344 5.14588C1.51181 5.14612 1.52355 5.1823 1.50075 5.19914L1.32452 5.3293L1.39063 5.53815C1.39921 5.56517 1.36839 5.58759 1.34531 5.57106L1.1671 5.44371L0.988888 5.5711C0.9658 5.58759 0.935052 5.56521 0.943564 5.53818L1.00967 5.32933L0.833446 5.19918C0.810643 5.1823 0.822381 5.14616 0.850753 5.14591L1.06982 5.14424L1.13912 4.93642C1.14805 4.9095 1.18607 4.9095 1.19508 4.93639Z" fill="#F5F5F5"/>
<path d="M1.19508 6.02351L1.26438 6.23134L1.48344 6.233C1.51181 6.23325 1.52355 6.26943 1.50075 6.28627L1.32452 6.41643L1.39063 6.62528C1.39921 6.6523 1.36839 6.67471 1.34531 6.65819L1.1671 6.53083L0.988888 6.65822C0.9658 6.67471 0.935052 6.65234 0.943564 6.62531L1.00967 6.41646L0.833446 6.28631C0.810643 6.26943 0.822381 6.23329 0.850753 6.23304L1.06982 6.23137L1.13912 6.02355C1.14805 5.99663 1.18607 5.99663 1.19508 6.02351Z" fill="#F5F5F5"/>
<path d="M1.19508 7.1107L1.26438 7.31852L1.48344 7.32019C1.51181 7.32044 1.52355 7.35661 1.50075 7.37346L1.32452 7.50361L1.39063 7.71246C1.39921 7.73949 1.36839 7.7619 1.34531 7.74537L1.1671 7.61802L0.988888 7.74541C0.9658 7.7619 0.935052 7.73952 0.943564 7.7125L1.00967 7.50365L0.833446 7.37349C0.810643 7.35661 0.822381 7.32047 0.850753 7.32022L1.06982 7.31856L1.13912 7.11073C1.14805 7.08378 1.18607 7.08378 1.19508 7.1107Z" fill="#F5F5F5"/>
<path d="M1.19508 8.19782L1.26438 8.40564L1.48344 8.40731C1.51181 8.40756 1.52355 8.44373 1.50075 8.46058L1.32452 8.59073L1.39063 8.79959C1.39921 8.82661 1.36839 8.84902 1.34531 8.8325L1.1671 8.70514L0.988888 8.83253C0.9658 8.84902 0.935052 8.82664 0.943564 8.79962L1.00967 8.59077L0.833446 8.46062C0.810643 8.44373 0.822381 8.4076 0.850753 8.40735L1.06982 8.40568L1.13912 8.19786C1.14805 8.17087 1.18607 8.17087 1.19508 8.19782Z" fill="#F5F5F5"/>
<path d="M2.03883 4.38225L2.10813 4.59008L2.32719 4.59174C2.35556 4.59199 2.3673 4.62816 2.3445 4.64501L2.16827 4.77516L2.23438 4.98402C2.24296 5.01104 2.21214 5.03345 2.18906 5.01693L2.01085 4.88954L1.83264 5.01693C1.80955 5.03342 1.7788 5.01104 1.78731 4.98402L1.85342 4.77516L1.6772 4.64501C1.65439 4.62813 1.66613 4.59199 1.6945 4.59174L1.91357 4.59008L1.98287 4.38225C1.99177 4.35537 2.02986 4.35537 2.03883 4.38225Z" fill="#F5F5F5"/>
<path d="M2.03883 5.46941L2.10813 5.67723L2.32719 5.6789C2.35556 5.67914 2.3673 5.71532 2.3445 5.73216L2.16827 5.86232L2.23438 6.07117C2.24296 6.09819 2.21214 6.12061 2.18906 6.10408L2.01085 5.97669L1.83264 6.10408C1.80955 6.12057 1.7788 6.09823 1.78731 6.07117L1.85342 5.86232L1.6772 5.73216C1.65439 5.71528 1.66613 5.67914 1.6945 5.6789L1.91357 5.67723L1.98287 5.46941C1.99177 5.44249 2.02986 5.44249 2.03883 5.46941Z" fill="#F5F5F5"/>
<path d="M2.03883 6.55653L2.10813 6.76436L2.32719 6.76602C2.35556 6.76627 2.3673 6.80245 2.3445 6.81929L2.16827 6.94945L2.23438 7.1583C2.24296 7.18532 2.21214 7.20774 2.18906 7.19121L2.01085 7.06382L1.83264 7.19121C1.80955 7.2077 1.7788 7.18532 1.78731 7.1583L1.85342 6.94945L1.6772 6.81929C1.65439 6.80241 1.66613 6.76627 1.6945 6.76602L1.91357 6.76436L1.98287 6.55653C1.99177 6.52962 2.02986 6.52962 2.03883 6.55653Z" fill="#F5F5F5"/>
<path d="M2.03883 7.64367L2.10813 7.85149L2.32719 7.85316C2.35556 7.8534 2.3673 7.88958 2.3445 7.90642L2.16827 8.03658L2.23438 8.24543C2.24296 8.27245 2.21214 8.29487 2.18906 8.27834L2.01085 8.15095L1.83264 8.27834C1.80955 8.29483 1.7788 8.27245 1.78731 8.24543L1.85342 8.03658L1.6772 7.90642C1.65439 7.88954 1.66613 7.8534 1.6945 7.85316L1.91357 7.85149L1.98287 7.64367C1.99177 7.61678 2.02986 7.61678 2.03883 7.64367Z" fill="#F5F5F5"/>
<path d="M2.8827 3.84926L2.952 4.05708L3.17106 4.05875C3.19943 4.059 3.21117 4.09517 3.18837 4.11202L3.01215 4.24217L3.07825 4.45102C3.08683 4.47805 3.05602 4.50046 3.03293 4.48393L2.85472 4.35654L2.67651 4.48393C2.65342 4.50042 2.62267 4.47805 2.63119 4.45102L2.69729 4.24217L2.52107 4.11202C2.49826 4.09513 2.51 4.059 2.53838 4.05875L2.75744 4.05708L2.82674 3.84926C2.83567 3.82234 2.87373 3.82234 2.8827 3.84926Z" fill="#F5F5F5"/>
<path d="M2.8827 4.93639L2.952 5.14421L3.17106 5.14588C3.19943 5.14613 3.21117 5.1823 3.18837 5.19915L3.01215 5.3293L3.07825 5.53815C3.08683 5.56518 3.05602 5.58759 3.03293 5.57106L2.85472 5.44368L2.67651 5.57106C2.65342 5.58756 2.62267 5.56518 2.63119 5.53815L2.69729 5.3293L2.52107 5.19915C2.49826 5.18227 2.51 5.14613 2.53838 5.14588L2.75744 5.14421L2.82674 4.93639C2.83567 4.90951 2.87373 4.90951 2.8827 4.93639Z" fill="#F5F5F5"/>
<path d="M2.8827 6.02352L2.952 6.23134L3.17106 6.23301C3.19943 6.23326 3.21117 6.26943 3.18837 6.28628L3.01215 6.41643L3.07825 6.62528C3.08683 6.65231 3.05602 6.67472 3.03293 6.65819L2.85472 6.5308L2.67651 6.65819C2.65342 6.67468 2.62267 6.65231 2.63119 6.62528L2.69729 6.41643L2.52107 6.28628C2.49826 6.2694 2.51 6.23326 2.53838 6.23301L2.75744 6.23134L2.82674 6.02352C2.83567 5.99664 2.87373 5.99664 2.8827 6.02352Z" fill="#F5F5F5"/>
<path d="M2.8827 7.11067L2.952 7.31849L3.17106 7.32016C3.19943 7.32041 3.21117 7.35658 3.18837 7.37343L3.01215 7.50358L3.07825 7.71244C3.08683 7.73946 3.05602 7.76187 3.03293 7.74535L2.85472 7.61796L2.67651 7.74535C2.65342 7.76184 2.62267 7.73946 2.63119 7.71244L2.69729 7.50358L2.52107 7.37343C2.49826 7.35655 2.51 7.32041 2.53838 7.32016L2.75744 7.31849L2.82674 7.11067C2.83567 7.08376 2.87373 7.08376 2.8827 7.11067Z" fill="#F5F5F5"/>
<path d="M2.8827 8.19783L2.952 8.40565L3.17106 8.40732C3.19943 8.40756 3.21117 8.44374 3.18837 8.46058L3.01215 8.59074L3.07825 8.79959C3.08683 8.82661 3.05602 8.84903 3.03293 8.8325L2.85472 8.70511L2.67651 8.8325C2.65342 8.84899 2.62267 8.82661 2.63119 8.79959L2.69729 8.59074L2.52107 8.46058C2.49826 8.4437 2.51 8.40756 2.53838 8.40732L2.75744 8.40565L2.82674 8.19783C2.83567 8.17087 2.87373 8.17087 2.8827 8.19783Z" fill="#F5F5F5"/>
<path d="M3.72657 4.38225L3.79587 4.59008L4.01494 4.59174C4.04331 4.59199 4.05505 4.62816 4.03224 4.64501L3.85602 4.77516L3.92212 4.98402C3.93071 5.01104 3.89989 5.03345 3.8768 5.01693L3.69859 4.88954L3.52038 5.01693C3.49729 5.03342 3.46655 5.01104 3.47506 4.98402L3.54116 4.77516L3.36494 4.64501C3.34214 4.62813 3.35388 4.59199 3.38225 4.59174L3.60131 4.59008L3.67061 4.38225C3.67951 4.35537 3.7176 4.35537 3.72657 4.38225Z" fill="#F5F5F5"/>
<path d="M3.72657 5.46941L3.79587 5.67723L4.01494 5.6789C4.04331 5.67914 4.05505 5.71532 4.03224 5.73216L3.85602 5.86232L3.92212 6.07117C3.93071 6.09819 3.89989 6.12061 3.8768 6.10408L3.69859 5.97669L3.52038 6.10408C3.49729 6.12057 3.46655 6.09823 3.47506 6.07117L3.54116 5.86232L3.36494 5.73216C3.34214 5.71528 3.35388 5.67914 3.38225 5.6789L3.60131 5.67723L3.67061 5.46941C3.67951 5.44249 3.7176 5.44249 3.72657 5.46941Z" fill="#F5F5F5"/>
<path d="M3.72657 6.55653L3.79587 6.76436L4.01494 6.76602C4.04331 6.76627 4.05505 6.80245 4.03224 6.81929L3.85602 6.94945L3.92212 7.1583C3.93071 7.18532 3.89989 7.20774 3.8768 7.19121L3.69859 7.06382L3.52038 7.19121C3.49729 7.2077 3.46655 7.18532 3.47506 7.1583L3.54116 6.94945L3.36494 6.81929C3.34214 6.80241 3.35388 6.76627 3.38225 6.76602L3.60131 6.76436L3.67061 6.55653C3.67951 6.52962 3.7176 6.52962 3.72657 6.55653Z" fill="#F5F5F5"/>
<path d="M3.72657 7.64367L3.79587 7.85149L4.01494 7.85316C4.04331 7.8534 4.05505 7.88958 4.03224 7.90642L3.85602 8.03658L3.92212 8.24543C3.93071 8.27245 3.89989 8.29487 3.8768 8.27834L3.69859 8.15095L3.52038 8.27834C3.49729 8.29483 3.46655 8.27245 3.47506 8.24543L3.54116 8.03658L3.36494 7.90642C3.34214 7.88954 3.35388 7.8534 3.38225 7.85316L3.60131 7.85149L3.67061 7.64367C3.67951 7.61678 3.7176 7.61678 3.72657 7.64367Z" fill="#F5F5F5"/>
<path d="M4.57036 3.84926L4.63966 4.05708L4.85872 4.05875C4.88709 4.059 4.89883 4.09517 4.87603 4.11202L4.6998 4.24217L4.76591 4.45102C4.77449 4.47805 4.74367 4.50046 4.72059 4.48393L4.54234 4.35654L4.36413 4.48393C4.34104 4.50042 4.3103 4.47805 4.31881 4.45102L4.38491 4.24217L4.20869 4.11202C4.18589 4.09513 4.19763 4.059 4.226 4.05875L4.44506 4.05708L4.51436 3.84926C4.52333 3.82234 4.56139 3.82234 4.57036 3.84926Z" fill="#F5F5F5"/>
<path d="M4.57036 4.93639L4.63966 5.14421L4.85872 5.14588C4.88709 5.14613 4.89883 5.1823 4.87603 5.19915L4.6998 5.3293L4.76591 5.53815C4.77449 5.56518 4.74367 5.58759 4.72059 5.57106L4.54234 5.44368L4.36413 5.57106C4.34104 5.58756 4.3103 5.56518 4.31881 5.53815L4.38491 5.3293L4.20869 5.19915C4.18589 5.18227 4.19763 5.14613 4.226 5.14588L4.44506 5.14421L4.51436 4.93639C4.52333 4.90951 4.56139 4.90951 4.57036 4.93639Z" fill="#F5F5F5"/>
<path d="M4.57036 6.02352L4.63966 6.23134L4.85872 6.23301C4.88709 6.23326 4.89883 6.26943 4.87603 6.28628L4.6998 6.41643L4.76591 6.62528C4.77449 6.65231 4.74367 6.67472 4.72059 6.65819L4.54234 6.5308L4.36413 6.65819C4.34104 6.67468 4.3103 6.65231 4.31881 6.62528L4.38491 6.41643L4.20869 6.28628C4.18589 6.2694 4.19763 6.23326 4.226 6.23301L4.44506 6.23134L4.51436 6.02352C4.52333 5.99664 4.56139 5.99664 4.57036 6.02352Z" fill="#F5F5F5"/>
<path d="M4.57036 7.11067L4.63966 7.31849L4.85872 7.32016C4.88709 7.32041 4.89883 7.35658 4.87603 7.37343L4.6998 7.50358L4.76591 7.71244C4.77449 7.73946 4.74367 7.76187 4.72059 7.74535L4.54234 7.61796L4.36413 7.74535C4.34104 7.76184 4.3103 7.73946 4.31881 7.71244L4.38491 7.50358L4.20869 7.37343C4.18589 7.35655 4.19763 7.32041 4.226 7.32016L4.44506 7.31849L4.51436 7.11067C4.52333 7.08376 4.56139 7.08376 4.57036 7.11067Z" fill="#F5F5F5"/>
<path d="M4.57036 8.19783L4.63966 8.40565L4.85872 8.40732C4.88709 8.40756 4.89883 8.44374 4.87603 8.46058L4.6998 8.59074L4.76591 8.79959C4.77449 8.82661 4.74367 8.84903 4.72059 8.8325L4.54234 8.70511L4.36413 8.8325C4.34104 8.84899 4.3103 8.82661 4.31881 8.79959L4.38491 8.59074L4.20869 8.46058C4.18589 8.4437 4.19763 8.40756 4.226 8.40732L4.44506 8.40565L4.51436 8.19783C4.52333 8.17087 4.56139 8.17087 4.57036 8.19783Z" fill="#F5F5F5"/>
<path d="M5.4142 4.38225L5.48349 4.59008L5.70256 4.59174C5.73093 4.59199 5.74267 4.62816 5.71986 4.64501L5.54364 4.77516L5.60975 4.98402C5.61833 5.01104 5.58751 5.03345 5.56442 5.01693L5.38621 4.88954L5.208 5.01693C5.18492 5.03342 5.15417 5.01104 5.16268 4.98402L5.22879 4.77516L5.05256 4.64501C5.02976 4.62813 5.0415 4.59199 5.06987 4.59174L5.28893 4.59008L5.35823 4.38225C5.3672 4.35537 5.40522 4.35537 5.4142 4.38225Z" fill="#F5F5F5"/>
<path d="M5.4142 5.46941L5.48349 5.67723L5.70256 5.6789C5.73093 5.67914 5.74267 5.71532 5.71986 5.73216L5.54364 5.86232L5.60975 6.07117C5.61833 6.09819 5.58751 6.12061 5.56442 6.10408L5.38621 5.97669L5.208 6.10408C5.18492 6.12057 5.15417 6.09823 5.16268 6.07117L5.22879 5.86232L5.05256 5.73216C5.02976 5.71528 5.0415 5.67914 5.06987 5.6789L5.28893 5.67723L5.35823 5.46941C5.3672 5.44249 5.40522 5.44249 5.4142 5.46941Z" fill="#F5F5F5"/>
<path d="M5.4142 6.55653L5.48349 6.76436L5.70256 6.76602C5.73093 6.76627 5.74267 6.80245 5.71986 6.81929L5.54364 6.94945L5.60975 7.1583C5.61833 7.18532 5.58751 7.20774 5.56442 7.19121L5.38621 7.06382L5.208 7.19121C5.18492 7.2077 5.15417 7.18532 5.16268 7.1583L5.22879 6.94945L5.05256 6.81929C5.02976 6.80241 5.0415 6.76627 5.06987 6.76602L5.28893 6.76436L5.35823 6.55653C5.3672 6.52962 5.40522 6.52962 5.4142 6.55653Z" fill="#F5F5F5"/>
<path d="M5.4142 7.64367L5.48349 7.85149L5.70256 7.85316C5.73093 7.8534 5.74267 7.88958 5.71986 7.90642L5.54364 8.03658L5.60975 8.24543C5.61833 8.27245 5.58751 8.29487 5.56442 8.27834L5.38621 8.15095L5.208 8.27834C5.18492 8.29483 5.15417 8.27245 5.16268 8.24543L5.22879 8.03658L5.05256 7.90642C5.02976 7.88954 5.0415 7.8534 5.06987 7.85316L5.28893 7.85149L5.35823 7.64367C5.3672 7.61678 5.40522 7.61678 5.4142 7.64367Z" fill="#F5F5F5"/>
<path d="M6.25801 3.84926L6.3273 4.05708L6.54637 4.05875C6.57474 4.059 6.58648 4.09517 6.56368 4.11202L6.38745 4.24217L6.45356 4.45102C6.46214 4.47805 6.43132 4.50046 6.40823 4.48393L6.23002 4.35654L6.05182 4.48393C6.02873 4.50042 5.99798 4.47805 6.00649 4.45102L6.0726 4.24217L5.89637 4.11202C5.87357 4.09513 5.88531 4.059 5.91368 4.05875L6.13275 4.05708L6.20204 3.84926C6.21094 3.82234 6.24903 3.82234 6.25801 3.84926Z" fill="#F5F5F5"/>
<path d="M6.25801 4.93639L6.3273 5.14421L6.54637 5.14588C6.57474 5.14613 6.58648 5.1823 6.56368 5.19915L6.38745 5.3293L6.45356 5.53815C6.46214 5.56518 6.43132 5.58759 6.40823 5.57106L6.23002 5.44368L6.05182 5.57106C6.02873 5.58756 5.99798 5.56518 6.00649 5.53815L6.0726 5.3293L5.89637 5.19915C5.87357 5.18227 5.88531 5.14613 5.91368 5.14588L6.13275 5.14421L6.20204 4.93639C6.21094 4.90951 6.24903 4.90951 6.25801 4.93639Z" fill="#F5F5F5"/>
<path d="M6.25801 6.02352L6.3273 6.23134L6.54637 6.23301C6.57474 6.23326 6.58648 6.26943 6.56368 6.28628L6.38745 6.41643L6.45356 6.62528C6.46214 6.65231 6.43132 6.67472 6.40823 6.65819L6.23002 6.5308L6.05182 6.65819C6.02873 6.67468 5.99798 6.65231 6.00649 6.62528L6.0726 6.41643L5.89637 6.28628C5.87357 6.2694 5.88531 6.23326 5.91368 6.23301L6.13275 6.23134L6.20204 6.02352C6.21094 5.99664 6.24903 5.99664 6.25801 6.02352Z" fill="#F5F5F5"/>
<path d="M6.25801 7.11067L6.3273 7.31849L6.54637 7.32016C6.57474 7.32041 6.58648 7.35658 6.56368 7.37343L6.38745 7.50358L6.45356 7.71244C6.46214 7.73946 6.43132 7.76187 6.40823 7.74535L6.23002 7.61796L6.05182 7.74535C6.02873 7.76184 5.99798 7.73946 6.00649 7.71244L6.0726 7.50358L5.89637 7.37343C5.87357 7.35655 5.88531 7.32041 5.91368 7.32016L6.13275 7.31849L6.20204 7.11067C6.21094 7.08376 6.24903 7.08376 6.25801 7.11067Z" fill="#F5F5F5"/>
<path d="M6.25801 8.19783L6.3273 8.40565L6.54637 8.40732C6.57474 8.40756 6.58648 8.44374 6.56368 8.46058L6.38745 8.59074L6.45356 8.79959C6.46214 8.82661 6.43132 8.84903 6.40823 8.8325L6.23002 8.70511L6.05182 8.8325C6.02873 8.84899 5.99798 8.82661 6.00649 8.79959L6.0726 8.59074L5.89637 8.46058C5.87357 8.4437 5.88531 8.40756 5.91368 8.40732L6.13275 8.40565L6.20204 8.19783C6.21094 8.17087 6.24903 8.17087 6.25801 8.19783Z" fill="#F5F5F5"/>
<path d="M7.10176 4.38225L7.17105 4.59008L7.39012 4.59174C7.41849 4.59199 7.43023 4.62816 7.40742 4.64501L7.2312 4.77516L7.29731 4.98402C7.30589 5.01104 7.27507 5.03345 7.25198 5.01693L7.07377 4.88954L6.89556 5.01693C6.87248 5.03342 6.84173 5.01104 6.85024 4.98402L6.91635 4.77516L6.74012 4.64501C6.71732 4.62813 6.72906 4.59199 6.75743 4.59174L6.97649 4.59008L7.04579 4.38225C7.05473 4.35537 7.09282 4.35537 7.10176 4.38225Z" fill="#F5F5F5"/>
<path d="M7.10176 5.46941L7.17105 5.67723L7.39012 5.6789C7.41849 5.67914 7.43023 5.71532 7.40742 5.73216L7.2312 5.86232L7.29731 6.07117C7.30589 6.09819 7.27507 6.12061 7.25198 6.10408L7.07377 5.97669L6.89556 6.10408C6.87248 6.12057 6.84173 6.09823 6.85024 6.07117L6.91635 5.86232L6.74012 5.73216C6.71732 5.71528 6.72906 5.67914 6.75743 5.6789L6.97649 5.67723L7.04579 5.46941C7.05473 5.44249 7.09282 5.44249 7.10176 5.46941Z" fill="#F5F5F5"/>
<path d="M7.10176 6.55653L7.17105 6.76436L7.39012 6.76602C7.41849 6.76627 7.43023 6.80245 7.40742 6.81929L7.2312 6.94945L7.29731 7.1583C7.30589 7.18532 7.27507 7.20774 7.25198 7.19121L7.07377 7.06382L6.89556 7.19121C6.87248 7.2077 6.84173 7.18532 6.85024 7.1583L6.91635 6.94945L6.74012 6.81929C6.71732 6.80241 6.72906 6.76627 6.75743 6.76602L6.97649 6.76436L7.04579 6.55653C7.05473 6.52962 7.09282 6.52962 7.10176 6.55653Z" fill="#F5F5F5"/>
<path d="M7.10176 7.64367L7.17105 7.85149L7.39012 7.85316C7.41849 7.8534 7.43023 7.88958 7.40742 7.90642L7.2312 8.03658L7.29731 8.24543C7.30589 8.27245 7.27507 8.29487 7.25198 8.27834L7.07377 8.15095L6.89556 8.27834C6.87248 8.29483 6.84173 8.27245 6.85024 8.24543L6.91635 8.03658L6.74012 7.90642C6.71732 7.88954 6.72906 7.8534 6.75743 7.85316L6.97649 7.85149L7.04579 7.64367C7.05473 7.61678 7.09282 7.61678 7.10176 7.64367Z" fill="#F5F5F5"/>
<path d="M7.94563 3.84926L8.01493 4.05708L8.23399 4.05875C8.26236 4.059 8.2741 4.09517 8.2513 4.11202L8.07507 4.24217L8.14118 4.45102C8.14976 4.47805 8.11894 4.50046 8.09586 4.48393L7.91765 4.35654L7.73944 4.48393C7.71635 4.50042 7.6856 4.47805 7.69411 4.45102L7.76022 4.24217L7.584 4.11202C7.56119 4.09513 7.57293 4.059 7.6013 4.05875L7.82037 4.05708L7.88966 3.84926C7.8986 3.82234 7.93662 3.82234 7.94563 3.84926Z" fill="#F5F5F5"/>
<path d="M7.94563 4.93639L8.01493 5.14421L8.23399 5.14588C8.26236 5.14613 8.2741 5.1823 8.2513 5.19915L8.07507 5.3293L8.14118 5.53815C8.14976 5.56518 8.11894 5.58759 8.09586 5.57106L7.91765 5.44368L7.73944 5.57106C7.71635 5.58756 7.6856 5.56518 7.69411 5.53815L7.76022 5.3293L7.584 5.19915C7.56119 5.18227 7.57293 5.14613 7.6013 5.14588L7.82037 5.14421L7.88966 4.93639C7.8986 4.90951 7.93662 4.90951 7.94563 4.93639Z" fill="#F5F5F5"/>
<path d="M7.94563 6.02352L8.01493 6.23134L8.23399 6.23301C8.26236 6.23326 8.2741 6.26943 8.2513 6.28628L8.07507 6.41643L8.14118 6.62528C8.14976 6.65231 8.11894 6.67472 8.09586 6.65819L7.91765 6.5308L7.73944 6.65819C7.71635 6.67468 7.6856 6.65231 7.69411 6.62528L7.76022 6.41643L7.584 6.28628C7.56119 6.2694 7.57293 6.23326 7.6013 6.23301L7.82037 6.23134L7.88966 6.02352C7.8986 5.99664 7.93662 5.99664 7.94563 6.02352Z" fill="#F5F5F5"/>
<path d="M7.94563 7.11067L8.01493 7.31849L8.23399 7.32016C8.26236 7.32041 8.2741 7.35658 8.2513 7.37343L8.07507 7.50358L8.14118 7.71244C8.14976 7.73946 8.11894 7.76187 8.09586 7.74535L7.91765 7.61796L7.73944 7.74535C7.71635 7.76184 7.6856 7.73946 7.69411 7.71244L7.76022 7.50358L7.584 7.37343C7.56119 7.35655 7.57293 7.32041 7.6013 7.32016L7.82037 7.31849L7.88966 7.11067C7.8986 7.08376 7.93662 7.08376 7.94563 7.11067Z" fill="#F5F5F5"/>
<path d="M7.94563 8.19783L8.01493 8.40565L8.23399 8.40732C8.26236 8.40756 8.2741 8.44374 8.2513 8.46058L8.07507 8.59074L8.14118 8.79959C8.14976 8.82661 8.11894 8.84903 8.09586 8.8325L7.91765 8.70511L7.73944 8.8325C7.71635 8.84899 7.6856 8.82661 7.69411 8.79959L7.76022 8.59074L7.584 8.46058C7.56119 8.4437 7.57293 8.40756 7.6013 8.40732L7.82037 8.40565L7.88966 8.19783C7.8986 8.17087 7.93662 8.17087 7.94563 8.19783Z" fill="#F5F5F5"/>
</g>
<defs>
<clipPath id="clip0_98_5347">
<rect width="18.1579" height="18.1579" fill="white" transform="translate(0.315796)"/>
</clipPath>
</defs>
</svg>
