<svg width="20" height="21" viewBox="0 0 20 21" fill="none" xmlns="http://www.w3.org/2000/svg">
<path d="M14.0419 0.395508H5.95815C2.67307 0.395508 0 3.05316 0 6.3193V14.3564C0 17.6225 2.67307 20.2802 5.95815 20.2802H14.0419C17.3269 20.2802 20 17.6225 20 14.3564V6.3193C20 3.05316 17.3269 0.395508 14.0419 0.395508ZM17.9877 14.355C17.9877 16.521 16.2204 18.278 14.0419 18.278H5.95815C3.77956 18.278 2.01233 16.521 2.01233 14.355V6.31788C2.01233 4.15185 3.77956 2.39481 5.95815 2.39481H14.0419C16.2204 2.39481 17.9877 4.15185 17.9877 6.31788V14.355Z" fill="#FAB446"/>
<path d="M9.99998 5.19492C7.14776 5.19492 4.82727 7.50202 4.82727 10.3378C4.82727 13.1736 7.14776 15.4807 9.99998 15.4807C12.8522 15.4807 15.1727 13.1736 15.1727 10.3378C15.1727 7.50202 12.8522 5.19492 9.99998 5.19492ZM9.99998 13.48C8.25425 13.48 6.8396 12.0735 6.8396 10.3378C6.8396 8.60213 8.25425 7.19564 9.99998 7.19564C11.7457 7.19564 13.1604 8.60213 13.1604 10.3378C13.1604 12.0735 11.7457 13.48 9.99998 13.48Z" fill="#FAB446"/>
<path d="M15.1828 6.4661C15.8675 6.4661 16.4226 5.91423 16.4226 5.23346C16.4226 4.5527 15.8675 4.00082 15.1828 4.00082C14.4981 4.00082 13.943 4.5527 13.943 5.23346C13.943 5.91423 14.4981 6.4661 15.1828 6.4661Z" fill="#FAB446"/>
</svg>
