<svg width="19" height="19" viewBox="0 0 19 19" fill="none" xmlns="http://www.w3.org/2000/svg">
<g clip-path="url(#clip0_98_5345)">
<path d="M17.845 15.0272H0.313264C0.140375 15.0272 0.000183105 14.887 0.000183105 14.7141V3.44373C0.000183105 3.27084 0.140375 3.13065 0.313264 3.13065H17.845C18.0179 3.13065 18.1581 3.27084 18.1581 3.44373V14.7141C18.158 14.887 18.0179 15.0272 17.845 15.0272Z" fill="#73AF00"/>
<path d="M8.91637 4.79512L2.31797 8.81152C2.11756 8.93349 2.11756 9.22437 2.31797 9.34636L8.91637 13.3628C9.01634 13.4237 9.14192 13.4237 9.24193 13.3628L15.8404 9.3464C16.0408 9.22444 16.0408 8.93356 15.8404 8.81156L9.24193 4.79512C9.14196 4.73427 9.01634 4.73427 8.91637 4.79512Z" fill="#FFE15A"/>
<path d="M9.07915 11.5834C10.4624 11.5834 11.5837 10.4621 11.5837 9.07894C11.5837 7.69574 10.4624 6.57443 9.07915 6.57443C7.69595 6.57443 6.57465 7.69574 6.57465 9.07894C6.57465 10.4621 7.69595 11.5834 9.07915 11.5834Z" fill="#41479B"/>
<path d="M6.92999 7.79773C6.81182 7.99555 6.72057 8.21054 6.66028 8.43882C8.04868 8.33435 10.1025 8.72275 11.4098 9.99122C11.4951 9.77343 11.5514 9.54142 11.5725 9.29888C10.2227 8.16284 8.35662 7.75886 6.92999 7.79773Z" fill="#F5F5F5"/>
<path d="M9.18271 9.93363L9.24938 10.1336L9.46015 10.1352C9.48742 10.1354 9.49873 10.1703 9.47682 10.1865L9.30726 10.3117L9.37085 10.5126C9.37908 10.5387 9.34943 10.5602 9.32726 10.5443L9.15579 10.4217L8.98432 10.5443C8.96212 10.5602 8.93251 10.5387 8.94073 10.5126L9.00432 10.3117L8.83477 10.1865C8.81281 10.1703 8.82413 10.1354 8.8514 10.1352L9.06216 10.1336L9.12884 9.93363C9.13746 9.90774 9.17405 9.90774 9.18271 9.93363Z" fill="#F5F5F5"/>
<path d="M10.0019 10.4509L10.0306 10.5369L10.1213 10.5376C10.1331 10.5377 10.138 10.5527 10.1285 10.5597L10.0555 10.6135L10.0829 10.7C10.0864 10.7112 10.0737 10.7205 10.0641 10.7136L9.99029 10.6609L9.91649 10.7136C9.90695 10.7205 9.89418 10.7112 9.89773 10.7L9.92507 10.6135L9.85208 10.5597C9.84265 10.5527 9.84751 10.5377 9.85925 10.5376L9.94997 10.5369L9.97866 10.4509C9.98242 10.4397 9.9982 10.4397 10.0019 10.4509Z" fill="#F5F5F5"/>
<path d="M8.82858 9.55379L8.85727 9.63983L8.94799 9.64054C8.95973 9.64061 8.96463 9.65561 8.95516 9.6626L8.88217 9.71647L8.90951 9.80297C8.91306 9.81417 8.90033 9.82343 8.89075 9.81658L8.81695 9.76385L8.74315 9.81658C8.73361 9.82343 8.72084 9.81417 8.72439 9.80297L8.75173 9.71647L8.67875 9.6626C8.66931 9.65565 8.67417 9.64064 8.68591 9.64054L8.77663 9.63983L8.80532 9.55379C8.80908 9.54266 8.82486 9.54266 8.82858 9.55379Z" fill="#F5F5F5"/>
<path d="M7.23953 9.44945L7.26822 9.53549L7.35894 9.5362C7.37068 9.53627 7.37557 9.55127 7.36611 9.55826L7.29312 9.61213L7.32046 9.69863C7.32401 9.70983 7.31128 9.71909 7.3017 9.71225L7.2279 9.65951L7.1541 9.71225C7.14456 9.71909 7.13179 9.70983 7.13534 9.69863L7.16268 9.61213L7.08969 9.55826C7.08026 9.55131 7.08512 9.53631 7.09686 9.5362L7.18758 9.53549L7.21627 9.44945C7.22006 9.43832 7.23581 9.43832 7.23953 9.44945Z" fill="#F5F5F5"/>
<path d="M8.56882 10.4211L8.59751 10.5072L8.68823 10.5079C8.69997 10.508 8.70486 10.523 8.69539 10.5299L8.6224 10.5838L8.64975 10.6703C8.65329 10.6815 8.64056 10.6908 8.63099 10.6839L8.55718 10.6312L8.48338 10.6839C8.47384 10.6908 8.46108 10.6815 8.46462 10.6703L8.49197 10.5838L8.41898 10.5299C8.40955 10.523 8.4144 10.508 8.42614 10.5079L8.51686 10.5072L8.54555 10.4211C8.54935 10.41 8.56513 10.41 8.56882 10.4211Z" fill="#F5F5F5"/>
<path d="M7.83744 9.3894L7.86091 9.45977L7.93511 9.46037C7.94468 9.46044 7.94869 9.47271 7.94099 9.47842L7.88131 9.52247L7.90369 9.59318C7.90659 9.60233 7.89617 9.60992 7.88833 9.60432L7.82797 9.56119L7.76761 9.60432C7.75977 9.60992 7.74938 9.60233 7.75225 9.59318L7.77463 9.52247L7.71494 9.47842C7.70725 9.47271 7.71118 9.46044 7.72083 9.46037L7.79502 9.45977L7.8185 9.3894C7.82151 9.38029 7.83439 9.38029 7.83744 9.3894Z" fill="#F5F5F5"/>
<path d="M10.0656 7.93673L10.095 8.02475L10.1877 8.02546C10.1998 8.02553 10.2047 8.04089 10.195 8.04801L10.1204 8.10313L10.1484 8.19161C10.1521 8.20306 10.139 8.21253 10.1292 8.20555L10.0537 8.15157L9.97822 8.20555C9.96843 8.21257 9.95541 8.20303 9.95903 8.19161L9.98701 8.10313L9.9124 8.04801C9.90271 8.04089 9.90771 8.02556 9.9197 8.02546L10.0125 8.02475L10.0418 7.93673C10.0457 7.92531 10.0618 7.92531 10.0656 7.93673Z" fill="#F5F5F5"/>
<path d="M7.34177 8.95895L7.36525 9.02932L7.43944 9.02992C7.44902 9.02999 7.45302 9.04226 7.44533 9.04797L7.38564 9.09202L7.40802 9.16273C7.41093 9.17188 7.4005 9.17947 7.39266 9.17387L7.3323 9.13074L7.27194 9.17387C7.2641 9.17947 7.25371 9.17188 7.25658 9.16273L7.27896 9.09202L7.21928 9.04797C7.21158 9.04226 7.21552 9.03002 7.22516 9.02992L7.29935 9.02932L7.32283 8.95895C7.32585 8.94984 7.33872 8.94984 7.34177 8.95895Z" fill="#F5F5F5"/>
<path d="M7.69991 9.95066L7.73544 10.0573L7.84779 10.0581C7.86233 10.0582 7.86836 10.0768 7.85666 10.0854L7.76626 10.1522L7.80016 10.2593C7.80456 10.2731 7.78878 10.2846 7.77693 10.2762L7.68551 10.2108L7.59408 10.2762C7.58227 10.2846 7.56645 10.2731 7.57085 10.2593L7.60475 10.1522L7.51436 10.0854C7.50265 10.0768 7.50868 10.0582 7.52322 10.0581L7.63557 10.0573L7.67111 9.95066C7.67583 9.9369 7.69533 9.9369 7.69991 9.95066Z" fill="#F5F5F5"/>
<path d="M10.4588 10.4732L10.4811 10.5403L10.5518 10.5408C10.5609 10.5409 10.5647 10.5526 10.5574 10.558L10.5005 10.6L10.5218 10.6674C10.5246 10.6761 10.5147 10.6833 10.5072 10.678L10.4497 10.6369L10.3922 10.678C10.3847 10.6833 10.3748 10.6761 10.3775 10.6674L10.3989 10.6L10.342 10.558C10.3347 10.5526 10.3385 10.5409 10.3476 10.5408L10.4183 10.5403L10.4406 10.4732C10.4436 10.4645 10.4559 10.4645 10.4588 10.4732Z" fill="#F5F5F5"/>
<path d="M10.706 9.96144L10.7347 10.0475L10.8254 10.0482C10.8372 10.0483 10.8421 10.0633 10.8326 10.0702L10.7596 10.1241L10.787 10.2106C10.7905 10.2218 10.7778 10.2311 10.7682 10.2242L10.6944 10.1715L10.6206 10.2242C10.611 10.2311 10.5983 10.2218 10.6018 10.2106L10.6292 10.1241L10.5562 10.0702C10.5468 10.0633 10.5516 10.0483 10.5634 10.0482L10.6541 10.0475L10.6828 9.96144C10.6865 9.95027 10.7023 9.95027 10.706 9.96144Z" fill="#F5F5F5"/>
</g>
<defs>
<clipPath id="clip0_98_5345">
<rect width="18.1579" height="18.1579" fill="white"/>
</clipPath>
</defs>
</svg>
