<svg width="20" height="21" viewBox="0 0 20 21" fill="none" xmlns="http://www.w3.org/2000/svg">
<path d="M20 10.3379C20 4.84678 15.5229 0.395508 10 0.395508C4.47708 0.395508 0 4.84678 0 10.3379C0 15.2995 3.65633 19.4123 8.43673 20.1588V13.2117H5.89761V10.3379H8.43673V8.1477C8.43673 5.65597 9.93 4.27911 12.2138 4.27911C13.3077 4.27911 14.4524 4.47288 14.4524 4.47288V6.91958H13.1911C11.9489 6.91958 11.5619 7.68647 11.5619 8.47247V10.3379H14.3357L13.8924 13.2117H11.5619V20.1588C16.3423 19.4123 19.9986 15.2995 19.9986 10.3379H20Z" fill="#FAB446"/>
</svg>
