<svg width="20" height="21" viewBox="0 0 20 21" fill="none" xmlns="http://www.w3.org/2000/svg">
<path d="M17.2221 0.395508H2.77791C1.24392 0.395508 0 1.63844 0 3.17342V17.6176C0 19.1516 1.24392 20.3955 2.77791 20.3955H17.2221C18.7561 20.3955 20 19.1526 20 17.6176V3.17342C20 1.63942 18.7571 0.395508 17.2221 0.395508ZM6.11141 17.062H3.3335V7.6171H6.11141V17.062ZM4.7141 6.50594H4.69836C3.86941 6.50594 3.3335 5.8884 3.3335 5.11649C3.3335 4.34457 3.88613 3.72802 4.72983 3.72802C5.57353 3.72802 6.09568 4.32785 6.11141 5.11649C6.11141 5.88742 5.5755 6.50594 4.7141 6.50594ZM13.8896 17.062V12.0067C13.8896 10.7854 13.2091 9.95252 12.1166 9.95252C11.2828 9.95252 10.8314 10.515 10.6131 11.0578C10.5335 11.2525 10.5571 11.7904 10.5571 12.0618V17.062H7.77914V7.6171H10.5571V9.07047C10.9573 8.45097 11.5846 7.6171 13.1894 7.6171C15.1768 7.6171 16.6675 8.86692 16.6675 11.6586V17.062H13.8896Z" fill="#FAB446"/>
</svg>
