<svg width="19" height="19" viewBox="0 0 19 19" fill="none" xmlns="http://www.w3.org/2000/svg">
<g clip-path="url(#clip0_98_5346)">
<path d="M0.47159 15.0273H18.0033C18.1762 15.0273 18.3164 14.8871 18.3164 14.7142V3.44379C18.3164 3.2709 18.1762 3.13071 18.0033 3.13071H0.47159C0.2987 3.13074 0.158508 3.2709 0.158508 3.44379V14.7142C0.158508 14.8871 0.2987 15.0273 0.47159 15.0273Z" fill="#C8414B"/>
<path d="M18.3164 5.63541H0.158508V12.523H18.3164V5.63541Z" fill="#FFD250"/>
<path d="M7.82854 9.07903L8.09399 7.88454C8.11847 7.77453 8.03473 7.6702 7.92203 7.6702H7.73506C7.62239 7.6702 7.53869 7.77453 7.56309 7.88454L7.82854 9.07903Z" fill="#C8414B"/>
<path d="M8.14169 8.4527H7.51556V11.1136H8.14169V8.4527Z" fill="#F5F5F5"/>
<path d="M8.29797 8.13989H7.35876V8.45298H8.29797V8.13989Z" fill="#FAB446"/>
<path d="M8.29886 9.07898H6.73346V9.39206H8.29886V9.07898Z" fill="#C8414B"/>
<path d="M8.29883 10.3312L7.35962 10.0182V9.70511L8.29883 10.0182V10.3312Z" fill="#C8414B"/>
<path d="M3.13323 9.07897L3.39868 7.88448C3.42315 7.77447 3.33942 7.67014 3.22671 7.67014H3.03975C2.92707 7.67014 2.84338 7.77447 2.86778 7.88448L3.13323 9.07897Z" fill="#C8414B"/>
<path d="M4.22849 8.1398C4.0556 8.1398 3.91541 8.27999 3.91541 8.45288V10.4878C3.91541 10.8682 4.27041 11.5836 5.48074 11.5836C6.69108 11.5836 7.04608 10.8682 7.04608 10.4878V8.45288C7.04608 8.27999 6.90588 8.1398 6.733 8.1398H4.22849Z" fill="#F5F5F5"/>
<path d="M5.48117 9.70511H3.91583V8.45285C3.91583 8.27996 4.05602 8.13977 4.22891 8.13977H5.48117V9.70511Z" fill="#C8414B"/>
<path d="M5.4812 9.70511H7.04654V10.4878C7.04654 10.9201 6.69615 11.2704 6.26387 11.2704C5.83159 11.2704 5.4812 10.9201 5.4812 10.4878V9.70511Z" fill="#C8414B"/>
<path d="M3.91541 9.70514H5.48074V10.4878C5.48074 10.9201 5.13035 11.2705 4.69807 11.2705C4.2658 11.2705 3.91541 10.9201 3.91541 10.4878V9.70514Z" fill="#FAB446"/>
<path d="M5.16702 11.1104V9.70514H4.85394V11.2547C4.97041 11.2311 5.07563 11.1795 5.16702 11.1104Z" fill="#C8414B"/>
<path d="M4.54086 11.2547V9.70514H4.22778V11.1104C4.31921 11.1795 4.42443 11.2311 4.54086 11.2547Z" fill="#C8414B"/>
<path d="M5.1676 9.07901H4.22839V9.39209H5.1676V9.07901Z" fill="#FFB441"/>
<path d="M5.1676 8.4527H4.22839V8.76578H5.1676V8.4527Z" fill="#FAB446"/>
<path d="M5.01071 8.63892H4.38458V9.20607H5.01071V8.63892Z" fill="#FAB446"/>
<path d="M3.44546 8.4527H2.81934V11.1136H3.44546V8.4527Z" fill="#F5F5F5"/>
<path d="M3.60156 10.9576H2.66235V11.2706H3.60156V10.9576Z" fill="#FAB446"/>
<path d="M3.60156 8.13989H2.66235V8.45298H3.60156V8.13989Z" fill="#FAB446"/>
<path d="M3.75891 11.2704H2.50665V11.5834H3.75891V11.2704Z" fill="#5064AA"/>
<path d="M8.45477 10.9576H7.51556V11.2707H8.45477V10.9576Z" fill="#FAB446"/>
<path d="M8.45465 11.2704H7.20239V11.5834H8.45465V11.2704Z" fill="#5064AA"/>
<path d="M6.41992 7.82675H4.5415V8.13983H6.41992V7.82675Z" fill="#FAB446"/>
<path d="M5.63736 6.88766H5.32428V7.82687H5.63736V6.88766Z" fill="#FFB441"/>
<path d="M5.16758 7.35714C4.90862 7.35714 4.698 7.14648 4.698 6.88756C4.698 6.62859 4.90866 6.41797 5.16758 6.41797C5.42655 6.41797 5.63717 6.62863 5.63717 6.88756C5.63721 7.14648 5.42655 7.35714 5.16758 7.35714ZM5.16758 6.73102C5.08123 6.73102 5.01104 6.80116 5.01104 6.88756C5.01104 6.97391 5.08119 7.0441 5.16758 7.0441C5.25398 7.0441 5.32412 6.97395 5.32412 6.88756C5.32412 6.8012 5.25398 6.73102 5.16758 6.73102Z" fill="#F5F5F5"/>
<path d="M5.79368 7.35714C5.53472 7.35714 5.3241 7.14648 5.3241 6.88756C5.3241 6.62859 5.53476 6.41797 5.79368 6.41797C6.05265 6.41797 6.26327 6.62863 6.26327 6.88756C6.26327 7.14648 6.05261 7.35714 5.79368 7.35714ZM5.79368 6.73102C5.70733 6.73102 5.63714 6.80116 5.63714 6.88756C5.63714 6.97391 5.70729 7.0441 5.79368 7.0441C5.88004 7.0441 5.95022 6.97395 5.95022 6.88756C5.95019 6.8012 5.88004 6.73102 5.79368 6.73102Z" fill="#F5F5F5"/>
<path d="M6.4199 7.67022C6.16094 7.67022 5.95032 7.45956 5.95032 7.20063C5.95032 6.94167 6.16098 6.73105 6.4199 6.73105C6.67887 6.73105 6.88949 6.94171 6.88949 7.20063C6.88949 7.45956 6.67883 7.67022 6.4199 7.67022ZM6.4199 7.04409C6.33355 7.04409 6.26336 7.11424 6.26336 7.20063C6.26336 7.28699 6.33351 7.35718 6.4199 7.35718C6.50626 7.35718 6.57644 7.28703 6.57644 7.20063C6.57644 7.11424 6.50626 7.04409 6.4199 7.04409Z" fill="#F5F5F5"/>
<path d="M4.54142 7.67022C4.28246 7.67022 4.07184 7.45956 4.07184 7.20063C4.07184 6.94167 4.2825 6.73105 4.54142 6.73105C4.80039 6.73105 5.01101 6.94171 5.01101 7.20063C5.01105 7.45956 4.80039 7.67022 4.54142 7.67022ZM4.54142 7.04409C4.45507 7.04409 4.38488 7.11424 4.38488 7.20063C4.38488 7.28699 4.45503 7.35718 4.54142 7.35718C4.62782 7.35718 4.69797 7.28699 4.69797 7.2006C4.69797 7.11424 4.62782 7.04409 4.54142 7.04409Z" fill="#F5F5F5"/>
<path d="M6.41974 10.3313V10.4878C6.41974 10.5741 6.34952 10.6443 6.2632 10.6443C6.17688 10.6443 6.10666 10.5741 6.10666 10.4878V10.3313H6.41974ZM6.73279 10.0182H5.79358V10.4878C5.79358 10.7468 6.00424 10.9574 6.26317 10.9574C6.52213 10.9574 6.73275 10.7467 6.73275 10.4878V10.0182H6.73279Z" fill="#FAB446"/>
<path d="M6.2634 9.3921C6.09051 9.3921 5.95032 9.2519 5.95032 9.07901V8.76593C5.95032 8.59304 6.09051 8.45285 6.2634 8.45285C6.43629 8.45285 6.57648 8.59304 6.57648 8.76593V9.07901C6.57648 9.2519 6.43629 9.3921 6.2634 9.3921Z" fill="#FFA0D2"/>
<path d="M5.48063 10.1746C5.73998 10.1746 5.95022 9.96431 5.95022 9.70497C5.95022 9.44562 5.73998 9.23538 5.48063 9.23538C5.22129 9.23538 5.01105 9.44562 5.01105 9.70497C5.01105 9.96431 5.22129 10.1746 5.48063 10.1746Z" fill="#5064AA"/>
<path d="M5.63736 6.26135H5.32428V7.20056H5.63736V6.26135Z" fill="#FAB446"/>
<path d="M4.54135 7.82675L4.22827 7.51367L4.41166 7.33028C4.69513 7.04681 5.07963 6.88754 5.48056 6.88754C5.88149 6.88754 6.26596 7.04681 6.54946 7.33028L6.73285 7.51367L6.41977 7.82675H4.54135Z" fill="#C8414B"/>
<path d="M5.48021 7.67011C5.56666 7.67011 5.63675 7.60002 5.63675 7.51357C5.63675 7.42711 5.56666 7.35703 5.48021 7.35703C5.39376 7.35703 5.32367 7.42711 5.32367 7.51357C5.32367 7.60002 5.39376 7.67011 5.48021 7.67011Z" fill="#FFD250"/>
<path d="M4.85393 7.67011C4.94038 7.67011 5.01047 7.60002 5.01047 7.51357C5.01047 7.42711 4.94038 7.35703 4.85393 7.35703C4.76747 7.35703 4.69739 7.42711 4.69739 7.51357C4.69739 7.60002 4.76747 7.67011 4.85393 7.67011Z" fill="#FFD250"/>
<path d="M6.10619 7.67011C6.19264 7.67011 6.26273 7.60002 6.26273 7.51357C6.26273 7.42711 6.19264 7.35703 6.10619 7.35703C6.01973 7.35703 5.94965 7.42711 5.94965 7.51357C5.94965 7.60002 6.01973 7.67011 6.10619 7.67011Z" fill="#FFD250"/>
<path d="M4.22776 9.07904H2.66235V9.39212H4.22776V9.07904Z" fill="#C8414B"/>
<path d="M2.66235 10.3313L3.60153 10.0182V9.70514L2.66235 10.0182V10.3313Z" fill="#C8414B"/>
</g>
<defs>
<clipPath id="clip0_98_5346">
<rect width="18.1579" height="18.1579" fill="white" transform="translate(0.157898)"/>
</clipPath>
</defs>
</svg>
